# xmcd
#
# Track frame offsets:
#	150
#	17780
#	33373
#	49811
#	63725
#	82344
#	99893
#	117029
#	132682
#	149638
#	163220
#	180814
#	195800
#	210213
#	224501
#	237862
#	251316
#	268891
#
# Disc length: 3709 seconds
#
# Revision: 2
# Processed by: cddbd v1.5.2PL0 Copyright (c) Steve Scherf et al.
# Submitted via: EasyCDDAExtractor 11.5.0.1
#
DISCID=030e7b12
DTITLE=Various Artist - NCT 028
DYEAR=2001
DGENRE=Country
TTITLE0=The Dixie Chicks - Heartbreak Town
TTITLE1=Rascal Flatts - While You Loved Me
TTITLE2=Kenny Chesney - The Tin Man
TTITLE3=Kenny Rogers - Beautiful
TTITLE4=Jamie O'Neal - Shiver
TTITLE5=Brittney Cleary - I M Me
TTITLE6=Joe Diffie - In Another World
TTITLE7=Brian McComas - Night Disappears With You
TTITLE8=Collin Raye - Ain't Nobody (Gonna Take That From Me)
TTITLE9=Mary Chapin Carpenter - This Is Me Leaving You
TTITLE10=Robert Earl Keen - Walkin' Cane
TTITLE11=Jameson Clark - Don't Play Any Love Songs
TTITLE12=Alison Krauss - The Lucky One
TTITLE13=Jerry Douglas - Hey Joe
TTITLE14=Tracy Lawrence - Life Don't Have To Be So Hard
TTITLE15=Dudley Connell And Don Rigsby - Another Saturday Night
TTITLE16=Rodney Crowell - Telephone Road
TTITLE17=J.W. Lance - Don't Let The Job Get You Down
EXTD=
EXTT0=
EXTT1=
EXTT2=
EXTT3=
EXTT4=
EXTT5=
EXTT6=
EXTT7=
EXTT8=
EXTT9=
EXTT10=
EXTT11=
EXTT12=
EXTT13=
EXTT14=
EXTT15=
EXTT16=
EXTT17=
PLAYORDER=
